<svg width="16" height="17" viewBox="0 0 16 17" fill="none" xmlns="http://www.w3.org/2000/svg">
<g id="Briefcase">
<path id="Vector" d="M9.5 7.50049C9.5 7.6331 9.44732 7.76027 9.35355 7.85404C9.25979 7.94781 9.13261 8.00049 9 8.00049H7C6.86739 8.00049 6.74021 7.94781 6.64645 7.85404C6.55268 7.76027 6.5 7.6331 6.5 7.50049C6.5 7.36788 6.55268 7.2407 6.64645 7.14693C6.74021 7.05317 6.86739 7.00049 7 7.00049H9C9.13261 7.00049 9.25979 7.05317 9.35355 7.14693C9.44732 7.2407 9.5 7.36788 9.5 7.50049ZM14.5 5.00049V13.0005C14.5 13.2657 14.3946 13.5201 14.2071 13.7076C14.0196 13.8951 13.7652 14.0005 13.5 14.0005H2.5C2.23478 14.0005 1.98043 13.8951 1.79289 13.7076C1.60536 13.5201 1.5 13.2657 1.5 13.0005V5.00049C1.5 4.73527 1.60536 4.48092 1.79289 4.29338C1.98043 4.10584 2.23478 4.00049 2.5 4.00049H5V3.50049C5 3.10266 5.15804 2.72113 5.43934 2.43983C5.72064 2.15852 6.10218 2.00049 6.5 2.00049H9.5C9.89782 2.00049 10.2794 2.15852 10.5607 2.43983C10.842 2.72113 11 3.10266 11 3.50049V4.00049H13.5C13.7652 4.00049 14.0196 4.10584 14.2071 4.29338C14.3946 4.48092 14.5 4.73527 14.5 5.00049ZM6 4.00049H10V3.50049C10 3.36788 9.94732 3.2407 9.85355 3.14693C9.75979 3.05317 9.63261 3.00049 9.5 3.00049H6.5C6.36739 3.00049 6.24021 3.05317 6.14645 3.14693C6.05268 3.2407 6 3.36788 6 3.50049V4.00049ZM13.5 7.60111V5.00049H2.5V7.60111C4.18764 8.51972 6.07855 9.00083 8 9.00049C9.92145 9.00083 11.8124 8.51972 13.5 7.60111Z" fill="#0E0E0E"/>
</g>
</svg>
