<svg width="16" height="17" viewBox="0 0 16 17" fill="none" xmlns="http://www.w3.org/2000/svg">
<g id="Gauge">
<path id="Vector" d="M15 10.5001V12.0001C15 12.2653 14.8946 12.5197 14.7071 12.7072C14.5196 12.8947 14.2652 13.0001 14 13.0001H7.24563C7.19951 13.0001 7.15428 12.9874 7.11495 12.9633C7.07561 12.9393 7.0437 12.9048 7.02274 12.8637C7.00178 12.8226 6.9926 12.7766 6.99619 12.7306C6.99979 12.6846 7.01603 12.6405 7.04313 12.6032L10.8919 7.3126C10.9716 7.20664 11.0073 7.0739 10.9913 6.94223C10.9754 6.81056 10.909 6.69018 10.8062 6.60635C10.7534 6.56532 10.6928 6.53533 10.6281 6.51815C10.5634 6.50097 10.4959 6.49695 10.4297 6.50633C10.3634 6.51572 10.2997 6.53831 10.2423 6.57278C10.1849 6.60724 10.135 6.65288 10.0956 6.70698L5.59562 12.8982C5.57204 12.9303 5.54113 12.9563 5.50547 12.974C5.46981 12.9917 5.43044 13.0007 5.39062 13.0001H2C1.73478 13.0001 1.48043 12.8947 1.29289 12.7072C1.10536 12.5197 1 12.2653 1 12.0001V10.5707C1 10.4589 1 10.3476 1.00812 10.2376C1.01133 10.1735 1.03908 10.1131 1.08562 10.0689C1.13217 10.0246 1.19393 10 1.25812 10.0001H3C3.06854 10.0003 3.13639 9.98631 3.19931 9.95913C3.26224 9.93196 3.31891 9.89214 3.3658 9.84214C3.41269 9.79215 3.4488 9.73305 3.47189 9.66851C3.49497 9.60397 3.50454 9.53537 3.5 9.46698C3.48894 9.33818 3.42945 9.21838 3.33352 9.13173C3.23759 9.04509 3.11237 8.99805 2.98312 9.0001H1.495C1.45686 9.00007 1.41923 8.99132 1.385 8.97451C1.35077 8.9577 1.32083 8.93328 1.29749 8.90312C1.27414 8.87296 1.25801 8.83786 1.25032 8.8005C1.24263 8.76315 1.24359 8.72453 1.25312 8.6876C2.00312 5.9476 4.35687 3.86698 7.22312 3.5451C7.25814 3.54131 7.29356 3.54497 7.32707 3.55583C7.36057 3.56668 7.39141 3.5845 7.41755 3.6081C7.44369 3.6317 7.46455 3.66056 7.47875 3.69279C7.49296 3.72502 7.5002 3.75988 7.5 3.7951V5.5001C7.49985 5.56865 7.51379 5.63649 7.54097 5.69942C7.56814 5.76234 7.60796 5.81901 7.65796 5.8659C7.70795 5.91279 7.76706 5.9489 7.8316 5.97199C7.89614 5.99507 7.96473 6.00464 8.03312 6.0001C8.16192 5.98904 8.28172 5.92955 8.36837 5.83362C8.45502 5.7377 8.50206 5.61248 8.5 5.48323V3.79198C8.4998 3.75676 8.50704 3.72189 8.52125 3.68967C8.53545 3.65744 8.55631 3.62858 8.58245 3.60497C8.60859 3.58137 8.63943 3.56356 8.67293 3.5527C8.70644 3.54184 8.74186 3.53819 8.77687 3.54198C10.1762 3.69922 11.4958 4.27417 12.5637 5.19196C13.6316 6.10974 14.3985 7.32783 14.7644 8.6876C14.7739 8.72458 14.7749 8.76326 14.7671 8.80066C14.7594 8.83806 14.7432 8.8732 14.7198 8.90337C14.6964 8.93354 14.6664 8.95795 14.6321 8.97472C14.5978 8.99149 14.5601 9.00017 14.5219 9.0001H13.0169C12.8878 8.99836 12.7629 9.04555 12.6673 9.13216C12.5716 9.21878 12.5123 9.3384 12.5013 9.46698C12.4967 9.53537 12.5063 9.60397 12.5294 9.66851C12.5525 9.73305 12.5886 9.79215 12.6354 9.84214C12.6823 9.89214 12.739 9.93196 12.8019 9.95913C12.8649 9.98631 12.9327 10.0003 13.0013 10.0001H14.7463C14.8111 10.0001 14.8734 10.0252 14.92 10.0702C14.9666 10.1152 14.994 10.1766 14.9963 10.2414C15 10.327 15 10.4132 15 10.5001Z" fill="#0E0E0E"/>
</g>
</svg>
