<svg width="16" height="17" viewBox="0 0 16 17" fill="none" xmlns="http://www.w3.org/2000/svg">
<g id="HandCoins" clip-path="url(#clip0_515_2131)">
<path id="Vector" d="M8.00514 4.08651C8.03315 3.69848 8.1613 3.32435 8.37707 3.00063C8.59284 2.67691 8.88885 2.41467 9.23622 2.23951C9.58359 2.06434 9.97045 1.98224 10.359 2.00121C10.7476 2.02018 11.1246 2.13958 11.4533 2.34776C11.4908 2.37234 11.5211 2.40659 11.5409 2.44691C11.5606 2.48723 11.5692 2.53213 11.5656 2.57689C11.562 2.62165 11.5464 2.66462 11.5205 2.70129C11.4946 2.73795 11.4593 2.76696 11.4183 2.78526C10.8469 3.0423 10.362 3.45881 10.0216 3.98477C9.68124 4.51073 9.49995 5.12377 9.49951 5.75026C9.49951 5.82338 9.49951 5.89651 9.50701 5.96838C9.51046 6.01381 9.50142 6.05932 9.48089 6.09999C9.46035 6.14065 9.42909 6.17494 9.39048 6.19913C9.35188 6.22332 9.30739 6.23651 9.26184 6.23726C9.21628 6.238 9.17139 6.22629 9.13201 6.20338C8.76368 5.9927 8.46244 5.68215 8.26304 5.30759C8.06365 4.93302 7.97424 4.50971 8.00514 4.08651ZM14.9995 10.5384C15.0004 10.8241 14.9213 11.1043 14.771 11.3474C14.6208 11.5904 14.4055 11.7865 14.1495 11.9134L14.122 11.9259L11.6951 12.9596C11.6712 12.9702 11.6463 12.9786 11.6208 12.9846L7.62076 13.9846C7.58114 13.9948 7.54042 14.0001 7.49951 14.0003H0.999512C0.734295 14.0003 0.479941 13.8949 0.292405 13.7074C0.104869 13.5198 -0.000488281 13.2655 -0.000488281 13.0003V10.5003C-0.000488281 10.235 0.104869 9.98069 0.292405 9.79315C0.479941 9.60561 0.734295 9.50026 0.999512 9.50026H2.79264L4.20639 8.08588C4.39177 7.89967 4.61221 7.75205 4.85497 7.65153C5.09773 7.55101 5.35801 7.4996 5.62076 7.50026H8.74951C9.01362 7.50023 9.27431 7.55998 9.51204 7.67503C9.74977 7.79008 9.95838 7.95745 10.1222 8.16459C10.2861 8.37173 10.4009 8.61327 10.4581 8.8711C10.5154 9.12893 10.5135 9.39638 10.4526 9.65338L13.0676 9.05213C13.2953 8.99185 13.5337 8.98464 13.7646 9.03106C13.9955 9.07749 14.2126 9.17631 14.3993 9.31991C14.5859 9.4635 14.7371 9.64804 14.8412 9.8593C14.9452 10.0706 14.9994 10.3029 14.9995 10.5384ZM13.9995 10.5384C13.9994 10.4557 13.9803 10.3742 13.9436 10.3001C13.9069 10.226 13.8537 10.1614 13.788 10.1112C13.7223 10.061 13.6459 10.0267 13.5647 10.0108C13.4836 9.9949 13.3999 9.99793 13.3201 10.0196L13.3008 10.0246L9.11326 10.9878C9.07653 10.996 9.03902 11.0001 9.00139 11.0003H6.99951C6.8669 11.0003 6.73973 10.9476 6.64596 10.8538C6.55219 10.76 6.49951 10.6329 6.49951 10.5003C6.49951 10.3676 6.55219 10.2405 6.64596 10.1467C6.73973 10.0529 6.8669 10.0003 6.99951 10.0003H8.74951C8.94842 10.0003 9.13919 9.92124 9.27984 9.78059C9.42049 9.63993 9.49951 9.44917 9.49951 9.25026C9.49951 9.05134 9.42049 8.86058 9.27984 8.71993C9.13919 8.57927 8.94842 8.50026 8.74951 8.50026H5.62076C5.48939 8.49984 5.35925 8.52553 5.2379 8.57586C5.11655 8.62618 5.00641 8.70012 4.91389 8.79338L3.49951 10.2071V13.0003H7.43701L11.3389 12.0246L13.7139 11.0134C13.8003 10.9678 13.8727 10.8995 13.923 10.8158C13.9734 10.732 13.9998 10.6361 13.9995 10.5384ZM10.4995 5.75026C10.4995 6.19526 10.6315 6.63028 10.8787 7.00029C11.1259 7.3703 11.4773 7.65869 11.8885 7.82898C12.2996 7.99928 12.752 8.04384 13.1885 7.95702C13.6249 7.87021 14.0258 7.65591 14.3405 7.34125C14.6552 7.02658 14.8695 6.62567 14.9563 6.18921C15.0431 5.75275 14.9985 5.30035 14.8282 4.88922C14.6579 4.47808 14.3696 4.12668 13.9995 3.87945C13.6295 3.63222 13.1945 3.50026 12.7495 3.50026C12.1528 3.50026 11.5805 3.73731 11.1585 4.15927C10.7366 4.58122 10.4995 5.15352 10.4995 5.75026Z" fill="#0E0E0E"/>
</g>
<defs>
<clipPath id="clip0_515_2131">
<rect width="16" height="16" fill="white" transform="translate(0 0.5)"/>
</clipPath>
</defs>
</svg>
