<svg width="16" height="17" viewBox="0 0 16 17" fill="none" xmlns="http://www.w3.org/2000/svg">
<g id="HourglassMedium">
<path id="Vector" d="M12.5 5.22701V2.99951C12.5 2.7343 12.3946 2.47994 12.2071 2.2924C12.0196 2.10487 11.7652 1.99951 11.5 1.99951H4.5C4.23478 1.99951 3.98043 2.10487 3.79289 2.2924C3.60536 2.47994 3.5 2.7343 3.5 2.99951V5.24951C3.50034 5.4047 3.53663 5.55769 3.60603 5.6965C3.67543 5.8353 3.77605 5.95613 3.9 6.04951L7.16687 8.49951L3.9 10.9495C3.77605 11.0429 3.67543 11.1637 3.60603 11.3025C3.53663 11.4413 3.50034 11.5943 3.5 11.7495V13.9995C3.5 14.2647 3.60536 14.5191 3.79289 14.7066C3.98043 14.8942 4.23478 14.9995 4.5 14.9995H11.5C11.7652 14.9995 12.0196 14.8942 12.2071 14.7066C12.3946 14.5191 12.5 14.2647 12.5 13.9995V11.772C12.4996 11.6174 12.4637 11.465 12.3948 11.3266C12.326 11.1882 12.2262 11.0675 12.1031 10.9739L8.82938 8.49951L12.1031 6.02514C12.2262 5.93156 12.326 5.81087 12.3948 5.67245C12.4637 5.53403 12.4996 5.3816 12.5 5.22701ZM11.5 11.772V13.9995H4.5V11.7495L7.5 9.49951V10.9995C7.5 11.1321 7.55268 11.2593 7.64645 11.3531C7.74021 11.4468 7.86739 11.4995 8 11.4995C8.13261 11.4995 8.25979 11.4468 8.35355 11.3531C8.44732 11.2593 8.5 11.1321 8.5 10.9995V9.50451L11.5 11.772ZM11.5 5.22701L11.1394 5.49951H4.83313L4.5 5.24951V2.99951H11.5V5.22701Z" fill="#0E0E0E"/>
</g>
</svg>
