<svg width="15" height="15" viewBox="0 0 15 15" fill="none" xmlns="http://www.w3.org/2000/svg">
<path d="M14.2779 10.0844L10.7446 8.50116L10.7348 8.49666C10.5514 8.41821 10.3513 8.38672 10.1527 8.40506C9.954 8.42339 9.76305 8.49096 9.59708 8.60166C9.57753 8.61457 9.55875 8.62859 9.54082 8.64366L7.71531 10.1999C6.5588 9.63817 5.3648 8.45316 4.80304 7.31165L6.36155 5.45839C6.37655 5.43964 6.3908 5.42089 6.4043 5.40064C6.51262 5.23511 6.57835 5.04538 6.59562 4.84831C6.61289 4.65125 6.58118 4.45297 6.5033 4.27113V4.26213L4.91554 0.722853C4.8126 0.4853 4.63558 0.287412 4.41093 0.158728C4.18627 0.0300449 3.92602 -0.0225312 3.66903 0.00884829C2.65275 0.142579 1.7199 0.641679 1.04471 1.41293C0.369525 2.18418 -0.00183071 3.17484 6.78653e-06 4.19988C6.78653e-06 10.1549 4.84504 15 10.8001 15C11.8251 15.0018 12.8158 14.6304 13.587 13.9552C14.3583 13.2801 14.8574 12.3472 14.9911 11.3309C15.0225 11.074 14.9701 10.8138 14.8415 10.5892C14.713 10.3646 14.5153 10.1875 14.2779 10.0844ZM10.8001 13.7999C8.25484 13.7972 5.81464 12.7848 4.01488 10.9851C2.21512 9.18532 1.20279 6.74512 1.20002 4.19988C1.19719 3.46749 1.46106 2.75911 1.94232 2.20704C2.42359 1.65497 3.08936 1.29696 3.81528 1.19986C3.81499 1.20285 3.81499 1.20586 3.81528 1.20886L5.3903 4.73388L3.84003 6.5894C3.8243 6.6075 3.81001 6.62681 3.79728 6.64715C3.68442 6.82034 3.61821 7.01974 3.60507 7.22605C3.59193 7.43235 3.6323 7.63855 3.72228 7.82465C4.40179 9.21441 5.80205 10.6042 7.20681 11.2829C7.39428 11.3721 7.60167 11.411 7.80872 11.3961C8.01577 11.3811 8.21538 11.3126 8.38807 11.1974C8.40732 11.1845 8.42585 11.1704 8.44357 11.1554L10.2668 9.59992L13.7919 11.1787C13.7919 11.1787 13.7979 11.1787 13.8001 11.1787C13.7042 11.9056 13.3467 12.5727 12.7945 13.0552C12.2424 13.5377 11.5333 13.8024 10.8001 13.7999Z" fill="#0E0E0E"/>
</svg>
