<svg width="15" height="11" viewBox="0 0 15 11" fill="none" xmlns="http://www.w3.org/2000/svg">
<path d="M14.4231 0H0.576923C0.423914 0 0.277171 0.0579464 0.168977 0.161091C0.0607828 0.264236 0 0.404131 0 0.55V9.9C0 10.1917 0.121566 10.4715 0.337954 10.6778C0.554342 10.8841 0.847827 11 1.15385 11H13.8462C14.1522 11 14.4457 10.8841 14.662 10.6778C14.8784 10.4715 15 10.1917 15 9.9V0.55C15 0.404131 14.9392 0.264236 14.831 0.161091C14.7228 0.0579464 14.5761 0 14.4231 0ZM12.9397 1.1L7.5 5.85406L2.06034 1.1H12.9397ZM13.8462 9.9H1.15385V1.80056L7.10986 7.00562C7.21629 7.09877 7.35552 7.15046 7.5 7.15046C7.64448 7.15046 7.78371 7.09877 7.89014 7.00562L13.8462 1.80056V9.9Z" fill="#0E0E0E"/>
</svg>
