<svg width="15" height="14" viewBox="0 0 15 14" fill="none" xmlns="http://www.w3.org/2000/svg">
<path d="M14.7914 1.11098C14.7084 1.04141 14.6074 0.995141 14.4993 0.977158C14.3912 0.959175 14.2801 0.970161 14.178 1.00893L0.607123 6.16413C0.414793 6.23672 0.251963 6.368 0.143147 6.5382C0.0343313 6.7084 -0.0145803 6.9083 0.00377564 7.10782C0.0221316 7.30733 0.106762 7.49566 0.244925 7.64445C0.383088 7.79323 0.567306 7.89443 0.769845 7.93279L4.28611 8.60295V12.4087C4.28542 12.616 4.34889 12.8188 4.46828 12.9906C4.58768 13.1625 4.75751 13.2956 4.95575 13.3727C5.15369 13.4512 5.37137 13.47 5.58049 13.4267C5.7896 13.3835 5.98048 13.2802 6.12829 13.1302L7.82381 11.4233L10.5138 13.7087C10.7078 13.8758 10.9581 13.9683 11.2175 13.9688C11.3312 13.9687 11.4442 13.9513 11.5524 13.9174C11.7291 13.863 11.8881 13.7645 12.0134 13.6319C12.1388 13.4993 12.2262 13.3371 12.2669 13.1614L14.9849 1.68364C15.0092 1.58012 15.0041 1.47214 14.97 1.37126C14.9359 1.27038 14.8742 1.1804 14.7914 1.11098ZM10.6972 3.451L4.69794 7.62144L1.37654 6.98899L10.6972 3.451ZM5.35754 12.4087V9.32251L7.01757 10.7356L5.35754 12.4087ZM11.2189 12.9287L5.68231 8.2162L13.651 2.6723L11.2189 12.9287Z" fill="#0E0E0E"/>
</svg>
