<svg width="14" height="14" viewBox="0 0 14 14" fill="none" xmlns="http://www.w3.org/2000/svg">
<path d="M4 1H2.5C2.10218 1 1.72064 1.15804 1.43934 1.43934C1.15804 1.72064 1 2.10218 1 2.5V11.5C1 11.8978 1.15804 12.2794 1.43934 12.5607C1.72064 12.842 2.10218 13 2.5 13H11.5C11.8978 13 12.2794 12.842 12.5607 12.5607C12.842 12.2794 13 11.8978 13 11.5V3.871C12.9999 3.47321 12.8418 3.09174 12.5605 2.8105L11.1895 1.4395C10.9083 1.15818 10.5268 1.00008 10.129 1H9.25M4 1V4C4 4.19891 4.07902 4.38968 4.21967 4.53033C4.36032 4.67098 4.55109 4.75 4.75 4.75H8.5C8.69891 4.75 8.88968 4.67098 9.03033 4.53033C9.17098 4.38968 9.25 4.19891 9.25 4V1M4 1H9.25M3.25 10.75V8.5C3.25 8.30109 3.32902 8.11032 3.46967 7.96967C3.61032 7.82902 3.80109 7.75 4 7.75H10C10.1989 7.75 10.3897 7.82902 10.5303 7.96967C10.671 8.11032 10.75 8.30109 10.75 8.5V10.75" stroke="#0E0E0E" stroke-width="1.5" stroke-linecap="round" stroke-linejoin="round"/>
</svg>
