<svg width="16" height="17" viewBox="0 0 16 17" fill="none" xmlns="http://www.w3.org/2000/svg">
<g id="Student">
<path id="Vector" d="M14.1581 4.02517L8.15812 2.02517C8.05548 1.99096 7.94452 1.99096 7.84188 2.02517L1.84187 4.02517C1.74232 4.05836 1.65572 4.12204 1.59436 4.20718C1.53301 4.29232 1.49999 4.3946 1.5 4.49955V9.49955C1.5 9.63216 1.55268 9.75933 1.64645 9.8531C1.74021 9.94687 1.86739 9.99955 2 9.99955C2.13261 9.99955 2.25979 9.94687 2.35355 9.8531C2.44732 9.75933 2.5 9.63216 2.5 9.49955V5.1933L4.59937 5.89267C4.0416 6.7938 3.86423 7.87945 4.10621 8.91124C4.34819 9.94303 4.98974 10.8366 5.89 11.3958C4.765 11.837 3.7925 12.6352 3.08125 13.7264C3.04426 13.7814 3.01857 13.8432 3.00566 13.9082C2.99276 13.9732 2.9929 14.0401 3.00609 14.105C3.01927 14.17 3.04523 14.2316 3.08246 14.2864C3.11969 14.3413 3.16744 14.3881 3.22294 14.4243C3.27844 14.4605 3.34058 14.4853 3.40576 14.4973C3.47093 14.5093 3.53783 14.5082 3.60257 14.4941C3.66732 14.48 3.72861 14.4531 3.78289 14.4151C3.83717 14.3771 3.88335 14.3287 3.91875 14.2727C4.86063 12.8277 6.34812 11.9995 8 11.9995C9.65187 11.9995 11.1394 12.8277 12.0813 14.2727C12.1546 14.3817 12.2679 14.4574 12.3966 14.4836C12.5254 14.5097 12.6592 14.4841 12.7692 14.4123C12.8793 14.3406 12.9566 14.2284 12.9846 14.1C13.0126 13.9717 12.9889 13.8375 12.9187 13.7264C12.2075 12.6352 11.2312 11.837 10.11 11.3958C11.0094 10.8366 11.6503 9.94363 11.8923 8.9126C12.1342 7.88156 11.9574 6.79666 11.4006 5.8958L14.1581 4.97705C14.2577 4.94388 14.3443 4.88021 14.4057 4.79507C14.4671 4.70993 14.5001 4.60763 14.5001 4.50267C14.5001 4.39771 14.4671 4.29542 14.4057 4.21028C14.3443 4.12513 14.2577 4.06147 14.1581 4.0283V4.02517ZM11 7.99955C11.0001 8.47383 10.8878 8.94139 10.6723 9.36386C10.4567 9.78633 10.1441 10.1517 9.75996 10.4299C9.37586 10.7082 8.93127 10.8914 8.46266 10.9645C7.99405 11.0377 7.51477 10.9986 7.06416 10.8507C6.61354 10.7027 6.20442 10.4501 5.87037 10.1134C5.53632 9.77669 5.28685 9.3656 5.14244 8.91384C4.99803 8.46207 4.96279 7.98251 5.03961 7.51448C5.11644 7.04646 5.30313 6.60332 5.58437 6.22142L7.84188 6.97142C7.94452 7.00564 8.05548 7.00564 8.15812 6.97142L10.4156 6.22142C10.7955 6.73642 11.0003 7.35961 11 7.99955Z" fill="#0E0E0E"/>
</g>
</svg>
