<svg width="16" height="17" viewBox="0 0 16 17" fill="none" xmlns="http://www.w3.org/2000/svg">
<g id="Users">
<path id="Vector" d="M10.2801 12.7264C10.3293 12.8019 10.3572 12.8892 10.3609 12.9792C10.3645 13.0692 10.3438 13.1585 10.3009 13.2377C10.258 13.3169 10.1945 13.383 10.1172 13.4291C10.0398 13.4752 9.95139 13.4996 9.86133 13.4996H0.640076C0.550011 13.4996 0.461621 13.4752 0.384244 13.4291C0.306868 13.383 0.243379 13.3169 0.200485 13.2377C0.15759 13.1585 0.136883 13.0692 0.140552 12.9792C0.14422 12.8892 0.172128 12.8019 0.221326 12.7264C0.925142 11.6431 1.96038 10.8163 3.17258 10.3696C2.50245 9.92344 1.99368 9.27349 1.72151 8.51585C1.44934 7.75821 1.42821 6.93309 1.66126 6.16251C1.8943 5.39193 2.36914 4.7168 3.01556 4.23696C3.66198 3.75712 4.44565 3.49805 5.2507 3.49805C6.05575 3.49805 6.83943 3.75712 7.48584 4.23696C8.13226 4.7168 8.6071 5.39193 8.84014 6.16251C9.07319 6.93309 9.05206 7.75821 8.77989 8.51585C8.50772 9.27349 7.99895 9.92344 7.32883 10.3696C8.54102 10.8163 9.57626 11.6431 10.2801 12.7264ZM15.7745 12.7171C15.0704 11.6383 14.0375 10.8151 12.8288 10.3696C13.6199 9.83667 14.1783 9.02232 14.3901 8.09228C14.602 7.16225 14.4515 6.18643 13.9692 5.36346C13.487 4.54049 12.7092 3.93222 11.7943 3.66246C10.8794 3.39271 9.89604 3.48174 9.04445 3.91144C9.01189 3.92826 8.98342 3.95202 8.96106 3.98106C8.9387 4.0101 8.923 4.0437 8.91507 4.07948C8.90714 4.11526 8.90717 4.15234 8.91516 4.18811C8.92316 4.22387 8.93892 4.25744 8.96133 4.28644C9.59456 5.07632 9.95822 6.04822 9.99905 7.05976C10.0399 8.07131 9.75572 9.06935 9.1882 9.90769C9.15152 9.96248 9.13797 10.0295 9.15049 10.0943C9.16302 10.159 9.20061 10.2162 9.25508 10.2533C9.99501 10.7697 10.6284 11.424 11.1207 12.1802C11.3192 12.4842 11.4003 12.8501 11.3488 13.2096C11.343 13.2453 11.3451 13.2819 11.3548 13.3168C11.3646 13.3517 11.3818 13.384 11.4052 13.4116C11.4287 13.4392 11.4579 13.4614 11.4908 13.4765C11.5237 13.4917 11.5595 13.4996 11.5957 13.4996H15.3645C15.4746 13.4996 15.5816 13.4633 15.6689 13.3963C15.7563 13.3293 15.8191 13.2353 15.8476 13.1289C15.865 13.059 15.8674 12.9862 15.8548 12.9152C15.8422 12.8443 15.8148 12.7768 15.7745 12.7171Z" fill="#0E0E0E"/>
</g>
</svg>
