<svg width="16" height="17" viewBox="0 0 16 17" fill="none" xmlns="http://www.w3.org/2000/svg">
<g id="Wallet">
<path id="Vector" d="M13.5 4.99951H3.5C3.36739 4.99951 3.24021 4.94683 3.14645 4.85307C3.05268 4.7593 3 4.63212 3 4.49951C3 4.3669 3.05268 4.23973 3.14645 4.14596C3.24021 4.05219 3.36739 3.99951 3.5 3.99951H12C12.1326 3.99951 12.2598 3.94683 12.3536 3.85307C12.4473 3.7593 12.5 3.63212 12.5 3.49951C12.5 3.3669 12.4473 3.23973 12.3536 3.14596C12.2598 3.05219 12.1326 2.99951 12 2.99951H3.5C3.10218 2.99951 2.72064 3.15755 2.43934 3.43885C2.15804 3.72016 2 4.10169 2 4.49951V12.4995C2 12.8973 2.15804 13.2789 2.43934 13.5602C2.72064 13.8415 3.10218 13.9995 3.5 13.9995H13.5C13.7652 13.9995 14.0196 13.8942 14.2071 13.7066C14.3946 13.5191 14.5 13.2647 14.5 12.9995V5.99951C14.5 5.7343 14.3946 5.47994 14.2071 5.29241C14.0196 5.10487 13.7652 4.99951 13.5 4.99951ZM11.25 9.99951C11.1017 9.99951 10.9567 9.95552 10.8333 9.87311C10.71 9.7907 10.6139 9.67357 10.5571 9.53652C10.5003 9.39948 10.4855 9.24868 10.5144 9.10319C10.5434 8.95771 10.6148 8.82407 10.7197 8.71918C10.8246 8.61429 10.9582 8.54286 11.1037 8.51392C11.2492 8.48498 11.4 8.49984 11.537 8.5566C11.6741 8.61337 11.7912 8.7095 11.8736 8.83283C11.956 8.95617 12 9.10118 12 9.24951C12 9.44842 11.921 9.63919 11.7803 9.77984C11.6397 9.92049 11.4489 9.99951 11.25 9.99951Z" fill="#0E0E0E"/>
</g>
</svg>
